<svg xmlns="http://www.w3.org/2000/svg" viewBox="0 0 24 24" class="css-1oql73n"><title/><path d="M15 8.20999C14.8616 8.20999 14.7262 8.25105 14.6111 8.32796C14.496 8.40488 14.4063 8.5142 14.3533 8.64211C14.3003 8.77002 14.2864 8.91077 14.3135 9.04655C14.3405 9.18234 14.4071 9.30707 14.505 9.40497C14.6029 9.50286 14.7277 9.56953 14.8634 9.59654C14.9992 9.62355 15.14 9.60969 15.2679 9.55671C15.3958 9.50373 15.5051 9.414 15.582 9.29889C15.6589 9.18378 15.7 9.04844 15.7 8.90999C15.7 8.72434 15.6263 8.54629 15.495 8.41502C15.3637 8.28374 15.1857 8.20999 15 8.20999Z" fill="#001325" fill-opacity="0.92"/><path fill-rule="evenodd" clip-rule="evenodd" d="M10.4833 10.2001C10.9322 9.90012 11.4601 9.74001 12 9.74001C12.3589 9.73869 12.7145 9.8084 13.0463 9.94513C13.3781 10.0819 13.6796 10.2829 13.9334 10.5367C14.1871 10.7904 14.3882 11.0919 14.5249 11.4237C14.6616 11.7555 14.7313 12.1111 14.73 12.47C14.73 13.01 14.5699 13.5378 14.2699 13.9867C13.9699 14.4357 13.5436 14.7856 13.0447 14.9922C12.5459 15.1988 11.997 15.2529 11.4674 15.1476C10.9378 15.0422 10.4514 14.7822 10.0696 14.4004C9.6878 14.0186 9.4278 13.5322 9.32246 13.0026C9.21712 12.473 9.27118 11.9241 9.47781 11.4253C9.68444 10.9264 10.0344 10.5001 10.4833 10.2001ZM11.15 13.7422C11.4016 13.9103 11.6974 14 12 14C12.4058 14 12.7949 13.8388 13.0819 13.5519C13.3688 13.265 13.53 12.8758 13.53 12.47C13.53 12.1674 13.4403 11.8716 13.2722 11.62C13.104 11.3684 12.8651 11.1723 12.5855 11.0565C12.3059 10.9407 11.9983 10.9104 11.7015 10.9694C11.4047 11.0284 11.1321 11.1742 10.9181 11.3881C10.7042 11.6021 10.5584 11.8747 10.4994 12.1715C10.4404 12.4683 10.4707 12.7759 10.5865 13.0555C10.7023 13.3351 10.8984 13.574 11.15 13.7422Z" fill="#001325" fill-opacity="0.92"/><path fill-rule="evenodd" clip-rule="evenodd" d="M12 3C10.22 3 8.47991 3.52784 6.99987 4.51677C5.51983 5.50571 4.36628 6.91131 3.68509 8.55585C3.0039 10.2004 2.82567 12.01 3.17294 13.7558C3.5202 15.5016 4.37737 17.1053 5.63604 18.364C6.89472 19.6226 8.49836 20.4798 10.2442 20.8271C11.99 21.1743 13.7996 20.9961 15.4442 20.3149C17.0887 19.6337 18.4943 18.4802 19.4832 17.0001C20.4722 15.5201 21 13.78 21 12C21 9.61305 20.0518 7.32387 18.364 5.63604C16.6761 3.94821 14.387 3 12 3ZM17 15C17 15.5304 16.7893 16.0391 16.4142 16.4142C16.0391 16.7893 15.5304 17 15 17H9C8.46957 17 7.96086 16.7893 7.58579 16.4142C7.21072 16.0391 7 15.5304 7 15V9C7 8.46957 7.21072 7.96086 7.58579 7.58579C7.96086 7.21071 8.46957 7 9 7H15C15.5304 7 16.0391 7.21071 16.4142 7.58579C16.7893 7.96086 17 8.46957 17 9V15Z" fill="#001325" fill-opacity="0.92"/></svg>