<svg xmlns="http://www.w3.org/2000/svg" viewBox="0 0 24 24" class="css-1oql73n"><title/><path d="M12.005 3.50888C12.7187 3.50888 13.3532 3.77041 13.8092 4.23314C14.2751 4.71598 14.5229 5.41006 14.5229 6.18462V6.29527C14.5229 7.07988 14.2751 7.77397 13.8092 8.25681C13.3631 8.72959 12.7187 8.99112 11.995 8.99112C10.5477 8.99112 9.4969 7.8645 9.4969 6.31538V6.21479C9.4969 4.59527 10.4981 3.50888 12.005 3.50888ZM12.005 2C9.68525 2 8 3.77041 8 6.21479V6.31538C8 8.69941 9.71499 10.5 11.9851 10.5C11.9851 10.5 11.9851 10.5 11.995 10.5C13.1152 10.5 14.1363 10.0775 14.8699 9.30296C15.6035 8.53846 16 7.46213 16 6.28521V6.18462C16 5.00769 15.5936 3.94142 14.86 3.17692C14.1363 2.42249 13.1252 2 12.005 2Z" fill="#001325" fill-opacity="0.92"/><path d="M19.2436 20.9485C19.6459 20.9485 19.972 20.6254 19.972 20.2268C19.972 19.8282 19.6459 19.5052 19.2436 19.5052C18.8414 19.5052 18.5153 19.8282 18.5153 20.2268C18.5153 20.6254 18.8414 20.9485 19.2436 20.9485Z" fill="#001325" fill-opacity="0.92"/><path d="M16.0804 20.9485C16.4827 20.9485 16.8088 20.6254 16.8088 20.2268C16.8088 19.8282 16.4827 19.5052 16.0804 19.5052C15.6781 19.5052 15.3521 19.8282 15.3521 20.2268C15.3521 20.6254 15.6781 20.9485 16.0804 20.9485Z" fill="#001325" fill-opacity="0.92"/><path d="M12.9171 20.9485C13.3194 20.9485 13.6455 20.6254 13.6455 20.2268C13.6455 19.8282 13.3194 19.5052 12.9171 19.5052C12.5148 19.5052 12.1887 19.8282 12.1887 20.2268C12.1887 20.6254 12.5148 20.9485 12.9171 20.9485Z" fill="#001325" fill-opacity="0.92"/><path d="M9.74364 21H5.61277C5.15494 21 4.70751 20.8041 4.40576 20.4536C4.10401 20.1134 3.95834 19.6598 4.01037 19.2062C4.52022 15.0928 8.058 12 12.2513 12C15.6434 12 18.6713 14.0103 19.9408 17.134C20.1072 17.5258 19.9095 17.9794 19.5141 18.1443C19.1083 18.299 18.6609 18.1134 18.4944 17.7217C17.4539 15.1856 15.0087 13.5567 12.2513 13.5567C8.84879 13.5567 5.97695 16.0722 5.56074 19.4021L9.74364 19.4536C10.1703 19.4536 10.524 19.8041 10.524 20.2268C10.524 20.6495 10.1703 21 9.74364 21Z" fill="#001325" fill-opacity="0.92"/></svg>