<svg xmlns="http://www.w3.org/2000/svg" viewBox="0 0 24 24" color="#fff" class="css-1y735xn"><title/><path d="M13 6H11C10.8011 6 10.6103 5.92098 10.4697 5.78033C10.329 5.63968 10.25 5.44891 10.25 5.25C10.25 5.05109 10.329 4.86032 10.4697 4.71967C10.6103 4.57902 10.8011 4.5 11 4.5H13C13.1989 4.5 13.3897 4.57902 13.5303 4.71967C13.671 4.86032 13.75 5.05109 13.75 5.25C13.75 5.44891 13.671 5.63968 13.5303 5.78033C13.3897 5.92098 13.1989 6 13 6Z" fill="#001325" fill-opacity="0.92"/><path d="M13 18.48C13 19.0323 12.5523 19.48 12 19.48C11.4477 19.48 11 19.0323 11 18.48C11 17.9277 11.4477 17.48 12 17.48C12.5523 17.48 13 17.9277 13 18.48Z" fill="#001325" fill-opacity="0.92"/><path fill-rule="evenodd" clip-rule="evenodd" d="M17.75 2H6.25C5.98478 2 5.73043 2.10536 5.54289 2.29289C5.35536 2.48043 5.25 2.73478 5.25 3V21C5.25 21.2652 5.35536 21.5196 5.54289 21.7071C5.73043 21.8946 5.98478 22 6.25 22H17.75C18.0152 22 18.2696 21.8946 18.4571 21.7071C18.6446 21.5196 18.75 21.2652 18.75 21V3C18.75 2.73478 18.6446 2.48043 18.4571 2.29289C18.2696 2.10536 18.0152 2 17.75 2ZM17.25 3.5V20.5H6.75V3.5H17.25Z" fill="#001325" fill-opacity="0.92"/></svg>