<svg xmlns="http://www.w3.org/2000/svg" viewBox="0 0 24 24" color="#001325" class="css-m4u8ms"><title/><path d="M8.00463 21C7.87318 21.0008 7.74287 20.9755 7.62117 20.9258C7.49948 20.876 7.38879 20.8027 7.29546 20.71C7.20184 20.617 7.12753 20.5064 7.07682 20.3846C7.02611 20.2627 7 20.132 7 20C7 19.868 7.02611 19.7373 7.07682 19.6154C7.12753 19.4936 7.20184 19.383 7.29546 19.29L14.587 12L7.29546 4.71C7.20233 4.61676 7.12845 4.50607 7.07805 4.38425C7.02765 4.26243 7.0017 4.13186 7.0017 4C7.0017 3.86814 7.02765 3.73757 7.07805 3.61575C7.12845 3.49393 7.20233 3.38324 7.29546 3.29C7.38859 3.19676 7.49915 3.1228 7.62083 3.07234C7.74251 3.02188 7.87293 2.99591 8.00463 2.99591C8.13634 2.99591 8.26676 3.02188 8.38844 3.07234C8.51012 3.1228 8.62068 3.19676 8.71381 3.29L16.7045 11.29C16.7982 11.383 16.8725 11.4936 16.9232 11.6154C16.9739 11.7373 17 11.868 17 12C17 12.132 16.9739 12.2627 16.9232 12.3846C16.8725 12.5064 16.7982 12.617 16.7045 12.71L8.71381 20.71C8.62048 20.8027 8.50979 20.876 8.3881 20.9258C8.2664 20.9755 8.13609 21.0008 8.00463 21Z" fill="#001325" fill-opacity="0.92"/></svg>