<svg xmlns="http://www.w3.org/2000/svg" viewBox="0 0 24 24" class="css-1oql73n"><title/><path d="M12.9293 21C15.2034 20.7633 17.3024 19.6677 18.8001 17.9356C20.2978 16.2035 21.0819 13.9649 20.9932 11.6742C20.9046 9.38346 19.9498 7.21245 18.3227 5.60197C16.6956 3.9915 14.5182 3.06229 12.2327 3.00302C9.94716 2.94375 7.7248 3.75887 6.01687 5.28287C4.30894 6.80686 3.24349 8.92548 3.03685 11.2085C2.83022 13.4916 3.4979 15.7679 4.90431 17.5753C6.31072 19.3827 8.35044 20.5856 10.6093 20.9398V14.8034H8.60928V12.6677H10.6093V11.2439C10.6093 8.89766 11.7493 7.8649 13.6993 7.8649C14.2543 7.85783 14.8091 7.89134 15.3593 7.96517V9.83015H13.9993C13.1793 9.83015 12.8893 10.6122 12.8893 11.5046V12.6677H15.3093L14.9793 14.8034H12.9293V21Z" fill="#001325" fill-opacity="0.92"/></svg>