<svg xmlns="http://www.w3.org/2000/svg" viewBox="0 0 24 24" color="#fff" class="css-1y735xn"><title/><path d="M12 13.6C11.6 13.6 11.3 13.3 11.2 12.8V11.4C11.2 11 11.5 10.6 12 10.6C12.6 10.6 13.2 10.1 13.2 9.49999C13.2 8.89999 12.7 8.29999 12.1 8.29999C11.5 8.29999 10.9 8.79999 10.9 9.39999C10.9 9.79999 10.6 10.2 10.1 10.2C9.59999 10.2 9.39999 9.99999 9.39999 9.49999C9.39999 7.99999 10.6 6.89999 12.1 6.89999C13.6 6.89999 14.7 8.09999 14.7 9.59999C14.7 10.8 13.9 11.8 12.8 12.1V12.9C12.7 13.3 12.4 13.6 12 13.6Z" fill="#001325" fill-opacity="0.92"/><path d="M12 16.4C12.4418 16.4 12.8 16.0418 12.8 15.6C12.8 15.1582 12.4418 14.8 12 14.8C11.5582 14.8 11.2 15.1582 11.2 15.6C11.2 16.0418 11.5582 16.4 12 16.4Z" fill="#001325" fill-opacity="0.92"/><path fill-rule="evenodd" clip-rule="evenodd" d="M3 12C3 7 7 3 12 3C17 3 21 7 21 12C21 17 17 21 12 21C7 21 3 17 3 12ZM19.5 12C19.5 7.9 16.1 4.5 12 4.5C7.9 4.5 4.5 7.9 4.5 12C4.5 16.1 7.9 19.5 12 19.5C16.1 19.5 19.5 16.1 19.5 12Z" fill="#001325" fill-opacity="0.92"/></svg>