<svg xmlns="http://www.w3.org/2000/svg" viewBox="0 0 24 24" color="#001325" class="css-1m594gz"><title/><path d="M11.9959 17C11.8644 17.0008 11.734 16.9755 11.6122 16.9258C11.4904 16.876 11.3796 16.8027 11.2862 16.71L3.28987 8.71C3.19667 8.61676 3.12275 8.50607 3.07231 8.38425C3.02187 8.26243 2.99591 8.13186 2.99591 8C2.99591 7.86814 3.02187 7.73757 3.07231 7.61575C3.12275 7.49393 3.19667 7.38324 3.28987 7.29C3.38306 7.19676 3.4937 7.1228 3.61547 7.07234C3.73724 7.02188 3.86775 6.99591 3.99955 6.99591C4.13135 6.99591 4.26185 7.02188 4.38362 7.07234C4.50539 7.1228 4.61603 7.19676 4.70922 7.29L11.9959 14.59L19.2826 7.29C19.4708 7.1017 19.7261 6.99591 19.9923 6.99591C20.2585 6.99591 20.5137 7.1017 20.702 7.29C20.8902 7.4783 20.9959 7.7337 20.9959 8C20.9959 8.2663 20.8902 8.5217 20.702 8.71L12.7056 16.71C12.6122 16.8027 12.5014 16.876 12.3796 16.9258C12.2579 16.9755 12.1275 17.0008 11.9959 17Z" fill="#001325" fill-opacity="0.92"/></svg>